HIERARCHY
ROOT Junyuan_V1:Solving:Hips
{
	OFFSET 0.000000 0.000000 0.000000
	CHANNELS 6 Xposition Yposition Zposition Xrotation Yrotation Zrotation
	JOINT Junyuan_V1:Solving:Spine
	{
		OFFSET 0.000000 -8.943189 2.778120
		CHANNELS 6 Xposition Yposition Zposition Xrotation Yrotation Zrotation
		JOINT Junyuan_V1:Solving:Spine1
		{
			OFFSET 0.000000 -9.944814 1.753542
			CHANNELS 6 Xposition Yposition Zposition Xrotation Yrotation Zrotation
			JOINT Junyuan_V1:Solving:Spine2
			{
				OFFSET 0.000000 -10.059801 0.880121
				CHANNELS 6 Xposition Yposition Zposition Xrotation Yrotation Zrotation
				JOINT Junyuan_V1:Solving:Spine3
				{
					OFFSET 0.000000 -10.098228 0.000000
					CHANNELS 6 Xposition Yposition Zposition Xrotation Yrotation Zrotation
					JOINT Junyuan_V1:Solving:Neck
					{
						OFFSET 0.000000 -12.983437 -1.298342
						CHANNELS 6 Xposition Yposition Zposition Xrotation Yrotation Zrotation
						JOINT Junyuan_V1:Solving:Neck1
						{
							OFFSET 0.000000 -8.085114 -0.707354
							CHANNELS 6 Xposition Yposition Zposition Xrotation Yrotation Zrotation
							JOINT Junyuan_V1:Solving:Head
							{
								OFFSET 0.000000 -7.992695 -1.409326
								CHANNELS 6 Xposition Yposition Zposition Xrotation Yrotation Zrotation
								JOINT Junyuan_V1:Solving:HeadEnd
								{
									OFFSET 0.000000 -9.728081 0.000002
									CHANNELS 6 Xposition Yposition Zposition Xrotation Yrotation Zrotation
									End Site
									{
										OFFSET 0.000000 -9.728081 0.000002
									}
								}
							}
						}
					}
					JOINT Junyuan_V1:Solving:RightShoulder
					{
						OFFSET 0.000000 -9.273884 -6.154356
						CHANNELS 6 Xposition Yposition Zposition Xrotation Yrotation Zrotation
						JOINT Junyuan_V1:Solving:RightArm
						{
							OFFSET -19.110832 -0.000008 0.000000
							CHANNELS 6 Xposition Yposition Zposition Xrotation Yrotation Zrotation
							JOINT Junyuan_V1:Solving:RightForeArm
							{
								OFFSET -27.916382 -0.000008 0.000000
								CHANNELS 6 Xposition Yposition Zposition Xrotation Yrotation Zrotation
								JOINT Junyuan_V1:Solving:RightHand
								{
									OFFSET -21.757072 -0.000008 0.000000
									CHANNELS 6 Xposition Yposition Zposition Xrotation Yrotation Zrotation
									JOINT Junyuan_V1:Solving:RightHandThumb1
									{
										OFFSET -3.656471 2.766285 -2.718907
										CHANNELS 6 Xposition Yposition Zposition Xrotation Yrotation Zrotation
										End Site
										{
											OFFSET -5.307442 0.000000 -5.356520
										}
									}
									JOINT Junyuan_V1:Solving:RightHandMiddle1
									{
										OFFSET -9.750572 -0.000004 0.062504
										CHANNELS 6 Xposition Yposition Zposition Xrotation Yrotation Zrotation
										End Site
										{
											OFFSET -7.540642 -0.000004 0.000000
										}
									}
								}
							}
						}
					}
					JOINT Junyuan_V1:Solving:LeftShoulder
					{
						OFFSET 0.000000 -9.273884 -6.154356
						CHANNELS 6 Xposition Yposition Zposition Xrotation Yrotation Zrotation
						JOINT Junyuan_V1:Solving:LeftArm
						{
							OFFSET 19.110832 -0.000008 0.000000
							CHANNELS 6 Xposition Yposition Zposition Xrotation Yrotation Zrotation
							JOINT Junyuan_V1:Solving:LeftForeArm
							{
								OFFSET 27.916382 -0.000008 0.000000
								CHANNELS 6 Xposition Yposition Zposition Xrotation Yrotation Zrotation
								JOINT Junyuan_V1:Solving:LeftHand
								{
									OFFSET 21.757072 -0.000008 0.000000
									CHANNELS 6 Xposition Yposition Zposition Xrotation Yrotation Zrotation
									JOINT Junyuan_V1:Solving:LeftHandThumb1
									{
										OFFSET 3.656471 2.766285 -2.718907
										CHANNELS 6 Xposition Yposition Zposition Xrotation Yrotation Zrotation
										End Site
										{
											OFFSET 5.307442 0.000000 -5.356520
										}
									}
									JOINT Junyuan_V1:Solving:LeftHandMiddle1
									{
										OFFSET 9.750572 -0.000004 0.062504
										CHANNELS 6 Xposition Yposition Zposition Xrotation Yrotation Zrotation
										End Site
										{
											OFFSET 7.540642 -0.000004 0.000000
										}
									}
								}
							}
						}
					}
				}
			}
		}
	}
	JOINT Junyuan_V1:Solving:RightUpLeg
	{
		OFFSET -8.521003 0.000000 0.000000
		CHANNELS 6 Xposition Yposition Zposition Xrotation Yrotation Zrotation
		JOINT Junyuan_V1:Solving:RightLeg
		{
			OFFSET 0.000000 41.622898 -0.000006
			CHANNELS 6 Xposition Yposition Zposition Xrotation Yrotation Zrotation
			JOINT Junyuan_V1:Solving:RightFoot
			{
				OFFSET 0.000000 37.258389 -0.000006
				CHANNELS 6 Xposition Yposition Zposition Xrotation Yrotation Zrotation
				JOINT Junyuan_V1:Solving:RightForeFoot
				{
					OFFSET 0.000000 3.234154 -0.000000
					CHANNELS 6 Xposition Yposition Zposition Xrotation Yrotation Zrotation
					JOINT Junyuan_V1:Solving:RightToeBase
					{
						OFFSET 0.000000 0.000000 -12.665958
						CHANNELS 6 Xposition Yposition Zposition Xrotation Yrotation Zrotation
						JOINT Junyuan_V1:Solving:RightToeBaseEnd
						{
							OFFSET 0.000000 0.000000 -2.833065
							CHANNELS 6 Xposition Yposition Zposition Xrotation Yrotation Zrotation
							End Site
							{
								OFFSET 0.000000 -2.833061 0.000002
							}
						}
					}
				}
			}
		}
	}
	JOINT Junyuan_V1:Solving:LeftUpLeg
	{
		OFFSET 8.521003 0.000000 0.000000
		CHANNELS 6 Xposition Yposition Zposition Xrotation Yrotation Zrotation
		JOINT Junyuan_V1:Solving:LeftLeg
		{
			OFFSET 0.000000 41.622898 -0.000006
			CHANNELS 6 Xposition Yposition Zposition Xrotation Yrotation Zrotation
			JOINT Junyuan_V1:Solving:LeftFoot
			{
				OFFSET 0.000000 37.258389 -0.000006
				CHANNELS 6 Xposition Yposition Zposition Xrotation Yrotation Zrotation
				JOINT Junyuan_V1:Solving:LeftForeFoot
				{
					OFFSET 0.000000 3.234154 -0.000000
					CHANNELS 6 Xposition Yposition Zposition Xrotation Yrotation Zrotation
					JOINT Junyuan_V1:Solving:LeftToeBase
					{
						OFFSET 0.000000 0.000000 -12.665958
						CHANNELS 6 Xposition Yposition Zposition Xrotation Yrotation Zrotation
						JOINT Junyuan_V1:Solving:LeftToeBaseEnd
						{
							OFFSET 0.000000 0.000000 -4.326123
							CHANNELS 6 Xposition Yposition Zposition Xrotation Yrotation Zrotation
							End Site
							{
								OFFSET 0.000000 -4.326126 0.000000
							}
						}
					}
				}
			}
		}
	}
}
MOTION
Frames: 6
Frame Time: 0.041667
33.441418 49.097488 -88.539490 87.487859 169.478631 0.757822 -0.000001 -8.943215 2.778128 15.555846 -0.034996 -2.470752 -0.000000 -9.944810 1.753550 -0.187742 0.231122 -0.304686 -0.000006 -10.059784 0.880123 -5.095414 3.476403 -0.782769 -0.000001 -10.098236 0.000017 -4.105210 0.707595 -0.191988 0.000005 -12.983391 -1.298341 5.381282 0.649109 4.372365 0.000001 -8.085084 -0.707375 -4.354906 0.267834 -0.762200 0.000001 -7.992712 -1.409333 -2.369229 0.497336 -1.279146 0.000009 -9.728081 0.000002 -0.000001 0.000000 -0.000000 0.000007 -9.273869 -6.154367 -0.000012 20.694121 14.031181 -19.110826 -0.000004 0.000009 -0.757114 -40.065565 -89.531902 -27.916395 -0.000008 0.000005 14.965950 -32.718433 8.221490 -21.757051 0.000001 -0.000017 0.979699 5.787185 -9.625412 -3.656479 2.766281 -2.718907 0.000000 0.000005 -0.000009 -9.750594 0.000001 0.062508 0.000001 -0.000003 0.000001 0.000007 -9.273869 -6.154363 -0.000011 -16.039308 -14.249413 19.110826 -0.000029 0.000003 -7.704768 39.400537 96.483628 27.916365 -0.000002 0.000007 16.718350 20.069083 -5.884734 21.757076 -0.000008 -0.000004 0.207277 -1.416078 8.328652 3.656480 2.766278 -2.718914 -0.000004 -0.000003 0.000001 9.750602 -0.000009 0.062500 -0.000003 -0.000000 -0.000001 -8.521005 -0.000006 0.000002 -5.591186 17.052033 -0.026510 0.000000 41.622890 -0.000004 4.313761 0.000001 -0.000000 0.000004 37.258408 0.000007 6.317546 0.999308 7.196085 -0.000006 3.234146 0.000015 0.000000 0.000001 0.000000 0.000000 0.000001 -12.665957 0.765409 0.000001 0.000000 -0.000002 -0.000000 -2.833065 -0.000001 0.000000 0.000000 8.520996 -0.000011 0.000013 -9.970391 -5.279470 -8.475225 0.000002 41.622902 0.000006 10.887918 0.000001 -0.000001 -0.000001 37.258392 -0.000004 4.134542 14.244954 14.544695 0.000000 3.234154 -0.000011 -0.000002 -0.000001 -0.000002 0.000000 0.000001 -12.665964 -1.167281 -0.000000 -0.000002 -0.000002 -0.000008 -4.326122 0.000000 0.000001 0.000000 
33.390770 49.216278 -88.567596 87.559965 169.383979 0.366461 0.000004 -8.943185 2.778131 15.787793 0.052661 -2.079944 0.000004 -9.944837 1.753542 -0.097280 0.229910 -0.319999 0.000005 -10.059804 0.880118 -5.049049 3.534327 -0.798580 -0.000003 -10.098248 -0.000005 -4.109234 0.720451 -0.295247 0.000001 -12.983468 -1.298353 5.414466 0.677948 4.423916 -0.000000 -8.085116 -0.707352 -4.402036 0.271740 -0.776839 0.000007 -7.992701 -1.409337 -2.474730 0.504397 -1.292736 -0.000002 -9.728134 0.000013 -0.000000 0.000000 -0.000000 -0.000004 -9.273918 -6.154358 -0.000009 20.600831 13.940729 -19.110834 0.000012 0.000007 -0.809919 -39.607161 -89.320638 -27.916384 0.000011 0.000009 16.891795 -32.664075 9.307615 -21.757067 -0.000012 -0.000005 1.024350 5.818474 -10.002570 -3.656489 2.766281 -2.718914 0.000002 0.000003 -0.000002 -9.750579 -0.000005 0.062498 -0.000004 0.000003 0.000002 -0.000001 -9.273914 -6.154358 -0.000008 -15.795038 -13.998731 19.110821 -0.000018 0.000001 -7.322212 43.033163 95.127904 27.916397 -0.000008 -0.000010 13.905871 21.654582 -5.220104 21.757095 -0.000009 0.000009 0.301500 -2.228765 7.706266 3.656452 2.766283 -2.718908 0.000002 0.000000 0.000004 9.750557 0.000001 0.062499 0.000006 0.000001 0.000000 -8.521001 0.000019 0.000008 -5.870162 17.044484 0.471114 -0.000004 41.622887 -0.000010 4.611199 -0.000001 -0.000000 0.000001 37.258385 -0.000017 6.180912 1.075208 7.089896 -0.000005 3.234146 0.000006 -0.000001 -0.000000 0.000001 -0.000000 0.000003 -12.665955 0.775839 -0.000001 0.000000 0.000007 -0.000008 -2.833066 -0.000001 -0.000000 -0.000001 8.520998 0.000001 0.000001 -10.404863 -5.542966 -8.312613 -0.000003 41.622917 -0.000010 11.928351 0.000003 0.000001 0.000002 37.258381 0.000003 3.432117 13.443171 13.759577 0.000001 3.234138 -0.000006 -0.000001 0.000001 -0.000001 0.000003 -0.000000 -12.665956 0.347472 -0.000000 -0.000001 -0.000002 -0.000007 -4.326129 0.000002 -0.000000 -0.000001 
33.375599 49.354538 -88.565285 87.552814 169.188703 0.248059 -0.000003 -8.943189 2.778121 15.998543 0.072056 -1.927086 -0.000001 -9.944831 1.753541 -0.034394 0.239659 -0.347068 -0.000004 -10.059812 0.880111 -5.034242 3.672753 -0.828307 -0.000005 -10.098216 0.000007 -4.116245 0.762499 -0.374048 -0.000002 -12.983423 -1.298349 5.450955 0.687125 4.489620 -0.000004 -8.085137 -0.707352 -4.473516 0.269639 -0.833518 -0.000004 -7.992719 -1.409336 -2.590348 0.529733 -1.355473 -0.000008 -9.728096 0.000006 -0.000002 -0.000001 0.000000 -0.000007 -9.273895 -6.154365 -0.000005 20.366552 14.081033 -19.110825 0.000012 -0.000001 -1.468409 -37.629664 -89.880542 -27.916389 -0.000012 0.000012 19.878390 -31.564606 10.717394 -21.757053 -0.000005 -0.000010 1.043921 4.926791 -11.978944 -3.656454 2.766272 -2.718901 -0.000000 -0.000005 0.000002 -9.750563 -0.000004 0.062504 -0.000007 0.000001 0.000003 -0.000001 -9.273899 -6.154366 -0.000005 -15.636670 -13.946340 19.110825 -0.000004 0.000014 -7.172237 43.227161 94.627743 27.916380 0.000000 0.000007 13.929164 22.046681 -5.318646 21.757069 -0.000020 0.000005 0.322844 -2.275983 8.075809 3.656486 2.766281 -2.718911 -0.000009 -0.000002 -0.000001 9.750578 -0.000010 0.062511 0.000001 -0.000000 -0.000002 -8.521006 0.000009 0.000006 -6.163971 17.218222 0.692063 -0.000005 41.622902 -0.000007 4.930519 0.000003 -0.000000 0.000003 37.258396 0.000001 6.070883 1.099783 7.052347 0.000003 3.234154 0.000003 -0.000001 0.000001 -0.000000 -0.000000 -0.000007 -12.665964 0.790636 0.000000 0.000001 -0.000004 -0.000008 -2.833068 -0.000002 -0.000000 0.000000 8.520996 0.000008 -0.000001 -10.919552 -5.649473 -8.432595 -0.000001 41.622913 -0.000008 12.966342 -0.000003 0.000000 0.000003 37.258392 -0.000002 2.917500 12.320262 13.481201 0.000001 3.234154 0.000006 -0.000000 -0.000000 -0.000001 0.000001 0.000010 -12.665951 0.775665 -0.000000 -0.000001 -0.000002 0.000000 -4.326138 -0.000000 -0.000001 0.000000 
33.355724 49.462250 -88.559189 87.584048 169.070637 0.145568 0.000010 -8.943162 2.778116 16.202677 0.091411 -1.798719 -0.000001 -9.944846 1.753543 0.023079 0.242166 -0.361896 0.000004 -10.059808 0.880143 -5.001134 3.737675 -0.844454 0.000001 -10.098249 0.000002 -4.117453 0.788850 -0.483249 -0.000004 -12.983434 -1.298344 5.443581 0.690691 4.515917 0.000001 -8.085123 -0.707357 -4.489723 0.259692 -0.840906 0.000002 -7.992701 -1.409326 -2.631638 0.534826 -1.369506 0.000004 -9.728058 0.000009 0.000000 0.000000 -0.000000 0.000005 -9.273907 -6.154362 -0.000013 20.116084 14.290917 -19.110821 -0.000025 -0.000003 -2.304806 -34.997278 -90.660291 -27.916388 -0.000014 0.000020 23.373418 -29.879376 12.150605 -21.757048 -0.000013 -0.000009 0.893424 3.470851 -14.444592 -3.656457 2.766271 -2.718881 0.000004 -0.000000 -0.000001 -9.750564 0.000009 0.062523 0.000007 -0.000003 0.000001 0.000011 -9.273922 -6.154365 -0.000008 -15.364290 -13.869198 19.110817 -0.000018 0.000016 -7.056034 42.443263 94.255176 27.916372 0.000003 -0.000007 15.127317 22.021288 -5.787805 21.757086 -0.000009 0.000009 0.326845 -2.020892 9.189025 3.656454 2.766273 -2.718913 0.000003 0.000002 0.000007 9.750564 -0.000005 0.062505 0.000001 0.000001 -0.000001 -8.521001 0.000028 -0.000004 -6.396273 17.342649 0.883102 -0.000006 41.622906 -0.000015 5.245269 -0.000001 -0.000000 0.000004 37.258377 0.000012 5.947319 1.094450 7.005905 -0.000008 3.234146 0.000006 -0.000001 0.000001 -0.000000 -0.000014 0.000004 -12.665962 0.791893 -0.000001 0.000001 -0.000007 -0.000008 -2.833067 -0.000000 0.000000 0.000001 8.521013 0.000043 0.000001 -11.318057 -5.776872 -8.596617 -0.000002 41.622894 -0.000005 13.926255 -0.000000 -0.000001 -0.000001 37.258381 0.000007 2.576684 11.037699 13.363461 0.000003 3.234146 -0.000002 0.000001 0.000001 -0.000000 -0.000001 0.000004 -12.665972 1.015490 0.000000 -0.000000 -0.000001 -0.000008 -4.326130 -0.000001 0.000000 -0.000002 
33.325611 49.566704 -88.554932 87.634858 169.006816 0.003730 0.000004 -8.943221 2.778116 16.420268 0.128566 -1.627554 -0.000001 -9.944793 1.753529 0.090310 0.240624 -0.369806 -0.000004 -10.059793 0.880115 -4.961374 3.752875 -0.858415 0.000002 -10.098236 0.000008 -4.128286 0.784006 -0.570419 -0.000003 -12.983427 -1.298346 5.454361 0.728515 4.519866 -0.000004 -8.085165 -0.707343 -4.521655 0.276836 -0.859252 0.000002 -7.992675 -1.409341 -2.684335 0.541509 -1.380433 0.000001 -9.728027 0.000004 0.000001 -0.000000 0.000000 0.000002 -9.273888 -6.154362 -0.000013 20.013491 14.300535 -19.110826 -0.000001 0.000015 -2.586585 -34.169766 -90.702460 -27.916382 -0.000008 0.000005 25.213097 -29.330420 12.987600 -21.757063 -0.000011 0.000005 0.834911 3.011996 -15.501012 -3.656464 2.766263 -2.718881 0.000010 0.000002 -0.000000 -9.750569 -0.000009 0.062524 0.000004 -0.000000 0.000003 0.000004 -9.273872 -6.154369 -0.000007 -15.074419 -13.833104 19.110817 -0.000019 0.000005 -7.036983 41.396998 93.963015 27.916376 -0.000013 0.000015 16.950117 21.849220 -6.471290 21.757074 -0.000014 -0.000001 0.323129 -1.762288 10.392053 3.656469 2.766284 -2.718912 0.000002 -0.000005 0.000007 9.750581 0.000005 0.062499 0.000002 0.000001 0.000001 -8.521013 -0.000019 0.000004 -6.635547 17.446096 1.118878 0.000004 41.622906 -0.000009 5.582812 0.000000 -0.000000 -0.000004 37.258423 -0.000010 5.814789 1.061131 6.936372 -0.000006 3.234146 0.000002 -0.000001 -0.000000 0.000000 -0.000003 -0.000011 -12.665960 0.807394 -0.000000 -0.000001 -0.000006 -0.000000 -2.833058 -0.000002 -0.000001 -0.000001 8.521001 -0.000003 0.000004 -11.679945 -5.915826 -8.726662 0.000005 41.622906 -0.000006 14.867278 0.000001 -0.000000 0.000003 37.258389 -0.000009 2.351276 9.621654 13.358232 0.000002 3.234154 0.000006 -0.000000 0.000000 -0.000001 0.000003 -0.000011 -12.665955 1.260095 0.000001 -0.000000 -0.000001 -0.000008 -4.326127 -0.000001 -0.000000 0.000001 
33.303181 49.691898 -88.548752 87.649871 168.932640 -0.102511 -0.000001 -8.943188 2.778118 16.646030 0.151465 -1.462511 -0.000002 -9.944795 1.753558 0.156487 0.243952 -0.385985 0.000001 -10.059818 0.880132 -4.943544 3.775250 -0.881683 0.000001 -10.098227 -0.000005 -4.165156 0.784329 -0.665517 0.000001 -12.983429 -1.298342 5.458046 0.748531 4.512546 0.000008 -8.085120 -0.707348 -4.545524 0.305822 -0.866110 0.000004 -7.992681 -1.409331 -2.752104 0.547862 -1.388142 0.000005 -9.728104 0.000004 0.000001 0.000001 -0.000000 0.000001 -9.273884 -6.154356 -0.000015 19.912351 14.287926 -19.110836 0.000015 -0.000001 -2.845548 -33.612198 -90.656247 -27.916388 -0.000019 0.000018 26.740985 -28.867112 13.671447 -21.757057 -0.000014 -0.000007 0.793629 2.686257 -16.466118 -3.656462 2.766291 -2.718895 0.000002 0.000003 -0.000007 -9.750557 -0.000003 0.062520 0.000002 -0.000003 -0.000000 0.000005 -9.273869 -6.154356 -0.000010 -14.848029 -13.740026 19.110830 -0.000011 0.000008 -6.973734 41.034581 93.516723 27.916382 0.000002 0.000002 17.605313 21.962236 -6.768005 21.757071 -0.000015 -0.000000 0.344738 -1.716809 11.355987 3.656467 2.766291 -2.718908 -0.000002 -0.000003 0.000004 9.750573 0.000009 0.062496 -0.000005 -0.000001 0.000001 -8.520997 -0.000007 -0.000002 -6.920815 17.575176 1.325229 -0.000006 41.622902 -0.000005 5.924870 0.000000 0.000000 -0.000004 37.258381 0.000013 5.707534 1.014146 6.907476 0.000003 3.234146 -0.000001 -0.000002 -0.000001 -0.000001 -0.000002 -0.000009 -12.665959 0.906222 0.000001 -0.000000 -0.000006 -0.000008 -2.833076 -0.000000 -0.000001 0.000000 8.521008 -0.000017 -0.000002 -12.113199 -6.018259 -8.926967 0.000001 41.622898 0.000001 15.808958 -0.000002 -0.000001 -0.000002 37.258392 0.000002 2.102494 8.470958 13.019266 0.000002 3.234153 -0.000005 -0.000002 0.000001 -0.000002 0.000001 -0.000001 -12.665964 1.640420 0.000000 -0.000000 0.000005 -0.000008 -4.326126 -0.000001 0.000001 -0.000001 
